<?xml version="1.0" encoding="utf-8"?>
<svg id="visual" viewBox="0 0 1920 1080" width="1920" height="1080" xmlns="http://www.w3.org/2000/svg" version="1.1">
  <rect x="0" y="0" width="1920" height="1080" fill="#FCE8B6"/>
  <path d="M -1.11 514.561 L 44.59 486.045 C 90.19 457.453 181.59 400.42 273.09 378.769 C 364.59 357.117 456.19 370.998 547.69 387.595 C 639.19 404.192 730.59 423.505 821.89 433.991 C 913.19 444.402 1004.59 445.91 1095.89 456.623 C 1187.19 467.26 1278.59 487.176 1370.09 486.422 C 1461.59 485.667 1553.19 464.242 1644.69 441.761 C 1736.19 419.28 1827.59 395.592 1873.19 383.823 L 1918.89 371.979 L 1918.89 1032.08 L 1873.19 1032.08 C 1827.59 1032.08 1736.19 1032.08 1644.69 1032.08 C 1553.19 1032.08 1461.59 1032.08 1370.09 1032.08 C 1278.59 1032.08 1187.19 1032.08 1095.89 1032.08 C 1004.59 1032.08 913.19 1032.08 821.89 1032.08 C 730.59 1032.08 639.19 1032.08 547.69 1032.08 C 456.19 1032.08 364.59 1032.08 273.09 1032.08 C 181.59 1032.08 90.19 1032.08 44.59 1032.08 L -1.11 1032.08 L -1.11 514.561 Z" fill="#fff1ee" style=""/>
  <path d="M 0 523.918 L 45.7 515.718 C 91.3 507.618 182.7 491.218 274.2 479.718 C 365.7 468.218 457.3 461.618 548.8 475.118 C 640.3 488.618 731.7 522.218 823 529.918 C 914.3 537.618 1005.7 519.218 1097 501.218 C 1188.3 483.218 1279.7 465.618 1371.2 438.618 C 1462.7 411.618 1554.3 375.218 1645.8 390.718 C 1737.3 406.218 1828.7 473.618 1874.3 507.218 L 1920 540.918 L 1920 997.918 L 1874.3 997.918 C 1828.7 997.918 1737.3 997.918 1645.8 997.918 C 1554.3 997.918 1462.7 997.918 1371.2 997.918 C 1279.7 997.918 1188.3 997.918 1097 997.918 C 1005.7 997.918 914.3 997.918 823 997.918 C 731.7 997.918 640.3 997.918 548.8 997.918 C 457.3 997.918 365.7 997.918 274.2 997.918 C 182.7 997.918 91.3 997.918 45.7 997.918 L 0 997.918 L 0 523.918 Z" style="fill: rgb(254, 226, 215);"/>
  <path d="M -0.439 523.477 L 45.261 526.477 C 90.861 529.477 182.261 535.477 273.761 553.477 C 365.261 571.477 456.861 601.477 548.361 606.977 C 639.861 612.477 731.261 593.477 822.561 605.277 C 913.861 617.177 1005.26 659.777 1096.56 660.277 C 1187.86 660.777 1279.26 619.177 1370.76 590.977 C 1462.26 562.777 1553.86 548.177 1645.36 555.277 C 1736.86 562.477 1828.26 591.477 1873.86 605.977 L 1919.56 620.477 L 1919.56 1029.47 L 1873.86 1029.47 C 1828.26 1029.47 1736.86 1029.47 1645.36 1029.47 C 1553.86 1029.47 1462.26 1029.47 1370.76 1029.47 C 1279.26 1029.47 1187.86 1029.47 1096.56 1029.47 C 1005.26 1029.47 913.861 1029.47 822.561 1029.47 C 731.261 1029.47 639.861 1029.47 548.361 1029.47 C 456.861 1029.47 365.261 1029.47 273.761 1029.47 C 182.261 1029.47 90.861 1029.47 45.261 1029.47 L -0.439 1029.47 L -0.439 523.477 Z" style="fill: rgb(254, 180, 141);"/>
  <path d="M -5.043 728.201 L 40.657 715.901 C 86.257 703.501 177.657 678.901 269.157 666.401 C 360.657 653.901 452.257 653.501 543.757 662.001 C 635.257 670.501 726.657 687.901 817.957 687.401 C 909.257 686.901 1000.65 668.501 1091.95 679.701 C 1183.25 690.901 1274.65 731.501 1366.15 733.201 C 1457.65 734.901 1549.25 697.501 1640.75 688.201 C 1732.25 678.901 1823.65 697.501 1869.25 706.901 L 1914.95 716.201 L 1914.95 999.201 L 1869.25 999.201 C 1823.65 999.201 1732.25 999.201 1640.75 999.201 C 1549.25 999.201 1457.65 999.201 1366.15 999.201 C 1274.65 999.201 1183.25 999.201 1091.95 999.201 C 1000.65 999.201 909.257 999.201 817.957 999.201 C 726.657 999.201 635.257 999.201 543.757 999.201 C 452.257 999.201 360.657 999.201 269.157 999.201 C 177.657 999.201 86.257 999.201 40.657 999.201 L -5.043 999.201 L -5.043 728.201 Z" style="fill: rgb(2, 183, 159);"/>
  <path d="M -4.16 914.229 L 41.54 913.47 C 87.14 912.71 178.54 911.192 270.04 887.653 C 361.54 864.115 453.14 818.557 544.64 792.741 C 636.14 766.925 727.54 760.85 818.84 789.704 C 910.14 818.557 1001.54 882.338 1092.84 891.45 C 1184.14 900.562 1275.54 855.004 1367.04 850.144 C 1458.54 845.436 1550.14 881.275 1641.64 883.401 C 1733.14 885.376 1824.54 853.485 1870.14 837.54 L 1915.84 821.594 L 1915.84 1105.57 L 1870.14 1105.57 C 1824.54 1105.57 1733.14 1105.57 1641.64 1105.57 C 1550.14 1105.57 1458.54 1105.57 1367.04 1105.57 C 1275.54 1105.57 1184.14 1105.57 1092.84 1105.57 C 1001.54 1105.57 910.14 1105.57 818.84 1105.57 C 727.54 1105.57 636.14 1105.57 544.64 1105.57 C 453.14 1105.57 361.54 1105.57 270.04 1105.57 C 178.54 1105.57 87.14 1105.57 41.54 1105.57 L -4.16 1105.57 L -4.16 914.229 Z" fill="#0f697c" style=""/>
</svg>